<?xml version="1.0" encoding="UTF-8"?>
<svg width="1077px" height="723px" viewBox="0 0 1077 723" version="1.1" xmlns="http://www.w3.org/2000/svg" xmlns:xlink="http://www.w3.org/1999/xlink">
    <!-- Generator: Sketch 55.2 (78181) - https://sketchapp.com -->
    <title>taglib 2</title>
    <desc>Created with Sketch.</desc>
    <defs>
        <path d="M45.4341952,92.95 L45.4341952,12.5590878 L0,12.5590878 L0,0 L116.147567,0 L116.147567,12.5590878 L70.7133715,12.5590878 L70.7133715,92.95 L45.4341952,92.95 Z M172.038069,93.2863842 L172.038069,87.4319961 L171.58124,87.4319961 C169.373223,89.6804317 165.94704,91.3349162 161.30259,92.395499 C156.734279,93.4985052 150.414876,94.05 142.344192,94.05 C129.096088,93.9651534 118.893678,92.0137102 111.736656,88.1956119 C104.198942,84.4623602 100.430141,79.689809 100.430141,73.8778149 C100.430141,68.3203607 103.704049,63.7175002 110.251962,60.0690952 C116.799876,56.3358435 126.393186,54.426823 139.032182,54.3419764 L172.038069,54.3419764 L172.038069,47.4057992 C172.190346,41.5938051 164.081715,38.772697 147.711931,38.9423903 C141.773126,38.9423903 137.090676,39.2817717 133.664443,39.9605447 C130.085932,40.7665877 127.268849,42.1241134 125.213108,44.0331625 L106.483124,36.0788309 C115.543609,29.4607939 128.90572,26.2366703 146.569859,26.4063636 C161.49301,26.321517 173.408511,27.891156 182.316719,31.1153279 C191.224927,34.4243464 195.755101,40.1089853 195.907378,48.169415 L195.907378,93.2863842 L172.038069,93.2863842 Z M171.284144,69.7318273 L171.284144,64.9 L142.672178,64.9 C128.785767,65.0717992 121.918964,67.7561208 122.071562,72.9530455 C122.071562,75.2293843 123.86456,77.1620959 127.450612,78.7512382 C130.884065,80.5121796 136.568252,81.3926371 144.503344,81.3926371 C154.498507,81.4785367 161.556055,80.8128249 165.676199,79.3954818 C169.414848,77.9781387 171.284144,74.7569528 171.284144,69.7318273 Z M292.182448,86.4898179 C284.364921,91.4654328 274.194699,94.0382549 261.671476,94.2083614 C254.005746,94.1233082 247.630382,93.2089995 242.545195,91.465408 C237.232313,89.8068697 233.171813,88.0207783 230.363575,86.1070802 C227.251744,83.9382225 225.012778,81.2803484 223.646608,78.1333783 C222.20454,75.0289348 221.483516,69.1178229 221.483516,60.3998651 C221.483516,51.5118009 222.20454,45.494374 223.646608,42.3474039 C225.012778,39.2429604 227.251744,36.6276123 230.363575,34.5012812 C233.171813,32.4174767 237.232313,30.5463333 242.545195,28.887795 C247.630382,27.31431 254.005746,26.4850532 261.671476,26.4 C273.435715,26.4 283.605938,29.0153481 292.182448,34.2461227 L292.182448,27.229265 L315.976452,27.229265 L315.976452,91.8481457 C315.672859,101.799375 310.549799,109.113845 300.607119,113.791773 C290.588541,118.597282 278.596786,121 264.631496,121 C248.61695,120.829894 234.955457,117.130133 223.646608,109.900607 L242.089807,101.671746 C245.12574,103.245232 248.61701,104.5848 252.563723,105.690492 C256.586334,106.923764 260.760679,107.582917 265.086883,107.66797 C273.208003,107.66797 279.735161,106.413454 284.668552,103.904383 C289.526044,101.352786 292.030651,97.8231289 292.182448,93.3153068 L292.182448,86.4898179 Z M245.10675,60.3209302 C245.10675,65.394599 245.41255,68.8906881 246.024158,70.8093023 C246.559314,72.8131883 247.820737,74.4759624 249.808462,75.7976744 C251.413933,76.9914788 253.860327,78.0786773 257.147719,79.0593023 C260.282209,80.2531067 264.181151,80.85 268.84466,80.85 C273.50817,80.85 277.407111,80.2531067 280.541601,79.0593023 C283.676091,78.0786773 286.046036,76.9914788 287.651507,75.7976744 C289.639232,74.4759624 290.977104,72.8131883 291.665163,70.8093023 C292.123869,68.8906881 292.353218,65.394599 292.353218,60.3209302 C292.353218,55.1619897 292.123869,51.5806302 291.665163,49.5767442 C290.977104,47.5728582 289.639232,45.9527194 287.651507,44.7162791 C286.046036,43.5224747 283.676091,42.3500058 280.541601,41.1988372 C277.407111,40.2182122 273.50817,39.6852717 268.84466,39.6 C264.181151,39.6852717 260.282209,40.2182122 257.147719,41.1988372 C253.860327,42.3500058 251.413933,43.5224747 249.808462,44.7162791 C247.820737,45.9527194 246.559314,47.5728582 246.024158,49.5767442 C245.41255,51.5806302 245.10675,55.1619897 245.10675,60.3209302 Z M346,92.95 L346,-4.97379915e-14 L371.234486,-4.97379915e-14 L371.234486,79.6258916 L452.304553,79.6258916 L452.304553,92.95 L346,92.95 Z M477.401884,92.95 L477.401884,26.95 L501.025118,26.95 L501.025118,92.95 L477.401884,92.95 Z M477.401884,13.75 L477.401884,0.55 L501.025118,0.55 L501.025118,13.75 L477.401884,13.75 Z M532.507064,93.2867347 L532.507064,0.55 L556.301069,0.55 L556.301069,34.2608844 C560.627273,31.9286731 565.370847,30.020529 570.531932,28.5363946 C575.313527,27.1370678 580.740175,26.437415 586.812041,26.437415 C601.30862,26.6494342 611.896276,29.532852 618.575329,35.0877551 C621.838956,37.1655433 624.077923,39.9005499 625.292296,43.2928571 C626.430771,46.6427605 627,52.2823867 627,60.2119048 C627,68.0142113 626.430771,73.6114343 625.292296,77.0037415 C624.077923,80.5656641 621.838956,83.3854771 618.575329,85.4632653 C615.311701,88.0074957 611.02351,90.0428495 605.710628,91.5693878 C600.473644,93.1383298 594.174178,93.9651923 586.812041,94.05 C574.364716,93.8803846 564.194494,91.3149908 556.301069,86.3537415 L556.301069,93.2867347 L532.507064,93.2867347 Z M580.638856,39.6 C575.287288,39.6 571.044322,40.2182109 567.909832,41.4546512 C564.62244,42.6910915 562.21427,44.3112303 560.685251,46.3151163 C559.232682,48.3190023 558.277059,50.4933991 557.818354,52.8383721 C557.359648,55.1833451 557.130298,57.6348709 557.130298,60.1930233 C557.130298,62.5379962 557.359648,64.9255692 557.818354,67.355814 C558.277059,69.8286945 559.232682,72.0670442 560.685251,74.0709302 C562.21427,76.0748162 564.62244,77.6949551 567.909832,78.9313953 C571.044322,80.2104715 575.287288,80.85 580.638856,80.85 C586.296229,80.85 590.768544,80.2531067 594.055936,79.0593023 C597.343328,77.822862 599.675048,76.2453584 601.051165,74.3267442 C602.580185,72.3228582 603.612257,70.0631909 604.147414,67.5476744 C604.300316,65.1600656 604.376766,62.7085397 604.376766,60.1930233 C604.376766,57.5495992 604.300316,54.9701676 604.147414,52.4546512 C603.612257,50.1096782 602.580185,47.9352813 601.051165,45.9313953 C599.675048,43.9275094 597.343328,42.3500058 594.055936,41.1988372 C590.768544,40.1329404 586.296229,39.6 580.638856,39.6 Z" id="path-1"></path>
    </defs>
    <g id="Page-1" stroke="none" stroke-width="1" fill="none" fill-rule="evenodd">
        <g id="taglib" transform="translate(6.000000, 6.000000)">
            <rect id="rect764" stroke="#000000" stroke-width="13.0569206" stroke-linejoin="round" x="0.834709253" y="0.953044479" width="1062.99181" height="708.660911"></rect>
            <g id="g730" transform="translate(88.794230, 152.086471)" fill="#000000">
                <rect id="rect647" x="0.944877739" y="0.463877731" width="7.73085327" height="472.440615"></rect>
                <rect id="rect648" x="16.406576" y="0.463877731" width="15.4617066" height="472.440615"></rect>
                <rect id="rect649" x="39.5991272" y="0.463877731" width="7.7308616" height="472.440615"></rect>
                <rect id="rect650" x="55.0608336" y="0.463877731" width="7.73084495" height="472.440615"></rect>
                <rect id="rect651" x="85.984231" y="0.463877731" width="30.9234131" height="472.440615"></rect>
                <rect id="rect652" x="124.638439" y="0.463569954" width="15.4616857" height="364.828806"></rect>
                <rect id="rect653" x="147.830973" y="0.463569954" width="15.4617024" height="364.828806"></rect>
                <rect id="rect654" x="171.023542" y="0.463569954" width="15.4616857" height="364.828806"></rect>
                <rect id="rect655" x="201.946922" y="0.463569954" width="7.73084288" height="364.828806"></rect>
                <rect id="rect658" x="217.408578" y="0.463569954" width="23.1925266" height="364.828806"></rect>
                <rect id="rect659" x="248.331958" y="0.463569954" width="30.9234047" height="364.828806"></rect>
                <rect id="rect661" x="294.717061" y="0.463569954" width="15.461719" height="364.828806"></rect>
                <rect id="rect662" x="317.909596" y="0.463569954" width="15.461719" height="364.828806"></rect>
                <rect id="rect663" x="341.102164" y="0.463569954" width="15.461719" height="364.828806"></rect>
                <rect id="rect664" x="364.294733" y="0.463545509" width="7.73084288" height="393.700765"></rect>
                <rect id="rect665" x="387.487267" y="0.463545509" width="15.461719" height="393.700765"></rect>
                <rect id="rect666" x="418.410713" y="0.463545509" width="30.9233715" height="393.700765"></rect>
                <rect id="rect668" x="468.661172" y="0.463404398" width="15.4616827" height="364.828938"></rect>
                <rect id="rect669" x="511.180786" y="0.463569954" width="23.1925266" height="364.828806"></rect>
                <rect id="rect670" x="542.104166" y="0.463569954" width="23.1925266" height="364.828806"></rect>
                <rect id="rect671" x="580.758391" y="0.463569954" width="15.4616857" height="364.828806"></rect>
                <rect id="rect672" x="603.950992" y="0.463569954" width="7.73084288" height="364.828806"></rect>
                <rect id="rect674" x="642.605217" y="0.463569954" width="7.73084288" height="364.828806"></rect>
                <rect id="rect675" x="681.259509" y="0.463569954" width="7.73077629" height="364.828806"></rect>
                <rect id="rect676" x="704.452043" y="0.463569954" width="7.73077629" height="364.828806"></rect>
                <rect id="rect677" x="727.644645" y="0.463569954" width="23.1925266" height="364.828806"></rect>
                <rect id="rect678" x="766.299069" y="0.463877731" width="7.73091154" height="472.440615"></rect>
                <rect id="rect679" x="789.49167" y="0.463877731" width="30.9233799" height="472.440615"></rect>
                <rect id="rect680" x="828.145896" y="0.463877731" width="23.1925349" height="472.440615"></rect>
                <rect id="rect681" x="866.800187" y="0.463877731" width="38.6542247" height="472.440615"></rect>
                <g id="text683" transform="translate(125.205770, 379.913529)" fill-rule="nonzero">
                    <g id="TagLib">
                        <use xlink:href="#path-1"></use>
                        <use xlink:href="#path-1"></use>
                    </g>
                </g>
            </g>
            <g id="text772" transform="translate(87.000000, 85.000000)" fill="#000000" font-family="Helvetica" font-size="41" font-weight="normal" letter-spacing="0.4">
                <text id="MP3-VORBIS-FLAC-MP4">
                    <tspan x="0.0366950307" y="40.5293777">MP3 VORBIS FLAC MP4 AAC WAV AIFF TA WP</tspan>
                </text>
            </g>
            <path d="M87.1619939,138.74844 L994.296483,138.74844" id="path783" stroke="#000000" stroke-width="4.12896125" stroke-linejoin="round"></path>
        </g>
    </g>
</svg>